<svg version="1" xmlns="http://www.w3.org/2000/svg" width="682.667" height="682.667" viewBox="0 0 512.000000 512.000000"><path d="M239.7 3.3c-1.3 2.1-2.2 2.7-3.7 2.2-1.2-.4-2-.2-2 .5 0 .6.5.8 1 .5 1.4-.9 1.2.4-.3 1.9-.7.7-1.8 1.1-2.6.8-.8-.3-1.2.1-.9.9.6 1.9-5.8 8.3-7.3 7.3-.8-.5-.9-.3-.4.5.9 1.5-5.3 8.3-6.8 7.4-.6-.3-.7-.1-.3.5.3.6.2 1.3-.4 1.7-.5.3-1 .1-1-.5s-.5-.8-1-.5c-.6.4-.8 1.1-.4 1.6.7 1.3-3.5 6-4.7 5.3-.5-.3-.9.1-.9.9s-.7 2-1.6 2.8c-1.3 1-1.7 1-2.4 0-.6-1-.9-1-1.5-.1-.4.7-.2 1.5.4 1.9.7.5.3 1.5-1.4 2.9-1.4 1.3-3 2-3.5 1.7-.6-.4-.7.1-.3 1.1.5 1.4.3 1.6-1.1 1.1-1-.4-1.5-.3-1.1.3.8 1.3-5.6 8.2-7.2 7.6-.7-.3-1.5 0-1.9.6-.5.7-.2.8.6.3s1.1-.3.8.6c-.3.8-1.2 1.2-1.9 1.1-.8-.2-1.1 0-.7.4.9.8-1 3.4-2.4 3.4-.6 0-.4-.8.3-1.7 1.2-1.4 1-1.4-1.3.1-3 2-3.7 3.2-1.3 2.2 2.3-.9 1.8.5-1.6 4-1.7 1.8-3.8 3-4.5 2.7-.9-.3-1.2 0-.9.9.7 1.7-5.9 8.3-7.4 7.4-.6-.4-.9-.1-.6.6.3.7-1.5 3.4-4 5.8-3.8 3.7-4.7 4.2-5.6 3-.8-1.2-.9-1-.4.7s.2 2.3-.9 2.3c-.9 0-1.5.4-1.3.8.3 1.2-5.6 7.2-7.2 7.2-.8 0-1.1.3-.8.7.8.7-3.2 5.3-4.6 5.3-.5 0-.7-.7-.3-1.5.9-2.3 0-1.8-2 1.2-1.5 2.4-1.5 2.6-.1 1.4 2.6-2.1 2 .2-.6 2.7-2.7 2.6-4.6 2.9-2.6.5 1.3-1.5 1.2-1.5-.8-.2-1.6.9-1.9 1.6-1 2.1 1.6 1-5 7.8-6.9 7.1-1-.4-1.2 0-.7 1.3.5 1.4.3 1.6-1.1 1.1-1.3-.5-1.7-.3-1.3.7.7 1.7-1.6 4-2.7 2.8-.4-.4-.6 0-.4.8.2.9-.4 1.4-1.4 1.4-1-.1-1.5.3-1.2.8.8 1.2-9.5 11.8-11.5 11.8-.8 0-1.1.3-.8.7.4.3-3.5 4.8-8.6 10-7.1 7.1-9.7 9.1-11.2 8.7-1.6-.4-1.7-.3-.5.5 1.2.9-1.7 4.3-16 18.6-9.6 9.6-18 17.3-18.7 17-.8-.2-1 .2-.6 1.2.5 1.3.2 1.5-1.1 1-1-.4-1.5-.3-1.1.4.7 1.1-1.2 3.9-2.6 3.9-.5 0-.6-.7-.3-1.5.4-.8.1-1.5-.6-1.5-.8 0-1 .8-.7 2.2.4 1.5-.1 3-1.5 4.5-2.5 2.6-4.8 3.2-2.7.6 1.3-1.5 1.2-1.5-.8-.2-1.5.9-1.9 1.6-1 2.1 1.7 1-3 5.8-5.1 5.1-1-.4-1.3-.2-.8.6.8 1.3-1 4.1-2.6 4.1-.6 0-.5-.7.2-1.5 1-1.2.9-1.5-.5-1.5-1.3 0-1.6.6-1.2 2.1.4 1.6-.5 3.3-3.6 6.6-2.2 2.4-4.6 4.2-5.3 3.9-1.3-.5-3.4 1.2-3.4 2.8 0 .5.7.1 1.5-1 .8-1 1.5-1.4 1.5-.8 0 1.1-4.2 5.4-5.3 5.4-.3 0-.4-.8 0-1.8s.2-1.4-.3-.9c-.5.5-.9 1.9-.9 3 0 1.3-.5 2.1-1.3 1.9-.8-.1-1.1.1-.8.6.2.4-1 2.2-2.9 4-5.4 5.4-6.5 8.7-6.5 20.6 0 5.8.4 10.6.9 10.6s1.2.7 1.5 1.6c.3.8.2 1.2-.4.9-.6-.3-1-.1-1 .4 0 .6.5 1.1 1 1.1.6 0 2 .9 3.2 2 1.1 1 4.2 2.9 6.7 4.2 4.3 2.1 6.3 2.3 29.6 2.9 13.8.3 25.1.6 25.2.7.2.1.4 9.5.5 20.9l.3 20.8 20 .3c18.1.2 23.2-.2 30.9-2.5 1.3-.4 1.6-.2 1.1.8-.5.9-.1.7.9-.2 1.6-1.5 1.8-6.1 1.9-57.6.2-52.6.3-56.1 2.1-58.7 1.4-2.3 2-2.6 2.8-1.5.8 1.1.9 1.1.5-.2-.7-2.2.6-4 3.2-4.2 1.3-.1 2-.6 1.7-1.4-.6-1.5.6-1.7 2-.3.6.6 1 .3 1-.9 0-1.1-.5-1.7-1-1.4-.5.3-.6.1-.2-.5.4-.7 1.4-1.2 2.2-1.2.8 0 1.4-.6 1.4-1.3 0-1.8 3.9-4.9 5.2-4.1.6.4.8.3.5-.3-.9-1.4 5.8-8.7 7.2-7.9.6.4.9.1.6-.7-.7-1.8 3-5.1 4.6-4.1.9.5 1 .2.6-.9-.3-.8.1-2.1.9-2.8 1.2-1 1.3-.9.9.4-.4.8-.2 1.8.3 2.1.5.3.8-.6.6-2-.1-1.6.7-3.3 2.4-4.9 3.2-3 3.8-3 5.1-.8.7 1.4.9 1.3.8-.9-.1-1.4-.6-2.3-1.2-2-.5.3-.4-.2.4-1.1.7-.9 2-1.7 2.8-1.7.8 0 1.1-.5.8-1-.3-.6.1-1 1-1s1.4-.4 1.1-.9c-.7-1.1 2.8-4.3 3.7-3.4.4.3.7.1.7-.5 0-2 4.3-6.3 5.8-5.7.7.2 1.1.1.7-.4-.7-1.2 7.3-10.1 9-10.1.7 0 1.5-.7 1.9-1.5.3-.9 1.2-1.2 2.3-.8 1.5.6 1.6.4.6-.8-1-1.2-.6-2.1 1.9-4.8 1.8-1.9 3.6-3 4.5-2.7 1 .4 1.3.2 1-.8-.6-1.4 3.6-5.9 6.5-6.9 1.2-.4 1.5-1.2 1.1-2.3-.4-1.2-.2-1.5.8-1.2.8.3 1.3 1.2 1.3 2.1-.1.9.2 1.4.8 1.1.5-.3.6-1.4.3-2.5-.5-1.3.6-3.2 3.6-6.4 2.3-2.5 4.5-4.3 4.7-4 .3.3 1.6-1.1 2.9-3.1 1.5-2.1 3-3.3 3.8-3 .9.3 1.2 0 .9-.9-.3-.8.3-1.6 1.5-2 1.2-.3 1.9-1.1 1.6-1.6-.4-.5.1-.9 1-.9s1.3-.5 1-1c-.3-.6 0-1 .8-1s2.1-.8 2.8-1.8c1.3-1.6 1.2-1.6-.6-.2-1.1.8-.5-.3 1.4-2.3 1.9-2 4.3-3.9 5.3-4.3 1-.3 1.6-.9 1.4-1.3-.3-.4 1.7-1.7 4.4-2.8 3.6-1.5 4.7-1.7 4.3-.7-.4 1 0 1.2 1.1.8 1-.4 1.6-.1 1.6.9 0 .8.7 1.8 1.6 2.1 2.6 1 2.9.7.8-.8-1-.8-1.5-1.8-1.1-2.2.9-1 12.6 10.6 12.2 12.1-.1.5 0 .6.3.2.8-1.5 32.1 30.5 31.5 32.2-.3 1.1-.2 1.2.4.4 1-1.4 39.8 37 38.9 38.6-.4.5-.1 1.3.5 1.7.8.4.9.3.5-.4s-.3-1.2.2-1.2c1.4 0 3.3 2.6 2.5 3.3-.3.4 0 .7.8.7 2.3 0 20.2 18.7 19.3 20.1-.5.8-.2 1 .7.7 1.6-.6 20.7 17.7 19.6 18.8-.3.4 0 1.3.8 2.1 1.2 1.2 1.5 9.7 1.4 54.1 0 35.7-.4 53-1.1 53.9-.7.9-.7 1.3.1 1.3.6 0 1.1.7 1.1 1.6 0 .9.6 1.4 1.3 1.1.6-.2 3.4.2 6.2.9 5.9 1.6 44.2 2.1 45.7.6.6-.6.9-9.4.8-21l-.1-20 3.7-.6c2-.4 12.2-.7 22.7-.6 10.6 0 21.2-.4 23.7-.9s4.9-.7 5.4-.4c.5.4.6.1.2-.5-.4-.7-.4-1.2.1-1.2.4 0 2.4-1.4 4.3-3 2.3-2 4.3-2.9 5.7-2.7 2 .4 2.1.3.8-1.7-1.8-2.5-1.9-4.2-.2-2.8 1 .9 1.3-1.2 1.6-10.4.2-8.3-.1-11.4-.9-11.4-.7 0-1-.7-.6-1.6.4-.9.2-1.3-.5-.8-.7.4-.9 0-.5-1.4.5-1.5.1-2.1-1.5-2.5-1.5-.4-2-1.1-1.5-2.2.7-1.9-5.9-8.9-7.5-8-1.6 1-3.7-1.4-3.2-3.5.3-1.1 0-2-.6-2s-1.1.4-1.1 1c0 1.9-5-3.4-5.1-5.4 0-1.2-.3-1.6-.5-.9-.8 1.9-4.2-1.6-3.7-3.7.3-1-.2-2-1.3-2.4-1.4-.5-1.5-.4-.4.9 2.2 2.6-.5 1.6-3.1-1.2-1.3-1.4-1.8-2.3-1-1.8.9.5 1.2.3.9-.6-.3-.8-1.3-1.4-2.3-1.4-2.2 0-6.8-6.2-5.8-7.9.4-.7.2-.7-.7.1-1 .9-2.5-.1-7.2-4.7-3.3-3.2-6.7-7.3-7.6-9.1-.9-1.9-2.4-3.4-3.2-3.4-.8 0-5.5-3.9-10.4-8.7-4.9-4.9-9.3-8.8-9.9-8.8-.5 0-.7-1.3-.4-2.9.5-2.5.3-2.9-1.9-2.9-1.4 0-3.3-.7-4.2-1.6-1.5-1.5-1.5-1.6.1-1.6 1 0 1.5-.5 1.2-1-.4-.6-1.5-.8-2.5-.5-1 .3-2.2 0-2.6-.6-.5-.8-.2-1 .7-.5.8.4.6.1-.5-.8-1-.8-1.5-1.9-1.2-2.5.4-.5.2-1.2-.4-1.6-.5-.3-1 .1-1 .9 0 1.3-.5 1.2-2.5-.6-1.8-1.5-2.2-2.5-1.5-3.7.7-1.3.4-1.7-1.3-1.8-1.7-.2-1.9 0-.7.7.8.5 1 1 .4 1-1.7 0-5.6-4.1-5-5.5.2-.7-.1-1.2-.8-1.1-2.2.2-8.6-6.2-8.8-8.9-.1-1.4-.6-2.5-1.1-2.5-.5 0-.7.7-.3 1.5.8 2.2.1 1.9-2.9-1.1-2.1-2.1-2.4-2.9-1.3-3.5.9-.6.4-.9-1.6-.9-2.7 0-2.8-.1-1.2-1.3 1.6-1.1 1.7-1.7.7-3.3-1.2-1.8-1.2-1.8-.8.1.3 1.6-.1 2.1-1.7 2.3-1.7.1-1.8-.1-.6-.8 1.3-.8 1.3-1-.1-1-.9 0-2.3-.8-3-1.7-1.2-1.5-1.2-1.6.4-1 1.3.5 1.7.3 1.4-.5-.2-.7-1.1-1.2-2.1-1-.9.2-1.6-.2-1.6-.8 0-.6-.6-.8-1.2-.4-.9.5-.9.2.1-.9 1.6-2 .2-2.3-1.8-.5-1.1 1.1-1.3 1-.8-.5.4-1.1.3-1.6-.3-1.2-1.8 1.1-5-3.7-3.9-5.7 1-1.9.6-2.2-2.4-1.8-2 .2-13.4-10.3-11.8-10.8.6-.2 1.1-.8 1.1-1.4 0-.6-.6-.8-1.4-.5-.8.3-1.7-.1-2-1-.4-.9-1.3-1.3-2.2-.9-.9.3-1.2.2-.8-.5.3-.6 1.5-.9 2.5-.6 1.1.3 1.7.1 1.3-.4-.3-.5-1.1-.9-1.9-.9-.7 0-1.6-.6-1.8-1.3-.3-.7-.6-.5-.6.5-.1 1-.5 1.8-1 1.8-1.1 0-4.1-6.2-3.5-7.2.3-.4 0-.8-.6-.8-.7 0-.9.8-.4 2.2.5 1.8 0 1.6-2.4-1.2-2.4-2.6-2.8-3.6-1.7-3.8.9-.2 1.3-.7 1-1.2-.3-.4-1.3-.6-2.3-.3-2.2.5-4.6-2.1-3.9-4.2.4-.8.2-1.7-.3-2-.6-.4-1 .2-1 1.2 0 1.3-1.1.7-4.1-2.5-2.2-2.3-4.4-4.2-4.8-4.2-.5 0-1.2-.7-1.5-1.6-.8-2.2-.8-2.6.4-1.9.6.3 1 .1 1-.5s-.8-.9-1.8-.6c-2.4.8-16.8-13.4-14.9-14.6.7-.5.2-.8-1.5-.8-1.6 0-2.8-.5-2.8-1.1 0-.5.4-.8.8-.5.4.2 1.4.1 2.2-.5 1.1-.6.6-.8-1.5-.5-2.3.2-3.5-.3-5-2.2-1.6-2.2-1.6-2.5-.2-1.9.9.3 1.7.2 1.7-.3 0-.6-.9-1-2-1-1.8 0-2.5-1.1-2.1-3.3.1-.5-.3-.6-.9-.2-.6.3-1.4-.4-1.9-1.7-.7-1.7-1-1.9-1-.6-.1 1-.5 1.8-1 1.8-1.4 0-2.1-2.8-.8-3.4.7-.2.3-.5-.9-.5-1.1-.1-2.9-1.1-4.1-2.4-1.1-1.2-4.3-4.4-7.2-7.1-2.9-2.7-5-5.4-4.7-6.2.3-.8 0-1.1-.8-.8-.7.3-1.9-.3-2.7-1.3-1.3-1.6-1.2-1.7.4-.4 1.6 1.3 1.9 1 1.6-1.7 0-.4-.7-.6-1.5-.4-.8.2-1.4-.3-1.4-1 0-.9-.2-1-.8-.1-.9 1.4-3.5-.3-4.5-3-.4-1-1.7-1.7-3.1-1.7-1.4 0-2.8-.5-3.1-1.1-.5-.7-4.9-1-12.5-.8l-11.7.3-1.6 2.9zm62.8 30.8c1.1 1.6.1 1.9-1.3.3-.7-.8-.8-1.4-.3-1.4s1.3.5 1.6 1.1zm73 70.9c-.3.5-1.2 1-1.8 1-.7 0-.6-.4.3-1 1.9-1.2 2.3-1.2 1.5 0zm56.5 56.6c0 .8-1.9 1.3-2.4.6-.3-.5.1-.9.9-.9s1.5.2 1.5.3zm23.4 25c.5 1.4.4 1.5-.9.4-1.7-1.4-1.9-2-.6-2 .5 0 1.2.7 1.5 1.6zm50.1 50.2c-.5.6-6.5-5.4-6.5-6.5 0-.4 1.6.8 3.5 2.7 1.9 1.8 3.3 3.6 3 3.8zM233.5 2c-.3.5-.1 1 .4 1 .6 0 1.1-.5 1.1-1 0-.6-.2-1-.4-1-.3 0-.8.4-1.1 1z"/><path d="M238 2.5c-.7.9-.8 1.5-.2 1.5.5 0 1.2-.7 1.6-1.5.3-.8.4-1.5.2-1.5s-.9.7-1.6 1.5zM227.5 12c-.3.5-.1 1 .4 1 .6 0 1.1-.5 1.1-1 0-.6-.2-1-.4-1-.3 0-.8.4-1.1 1zM284.1 14.1c-.1.9.8 2.4 1.9 3.4 1.1 1 2 1.3 2 .7 0-.6-.6-1.5-1.4-1.9-.7-.4-1.6-1.5-1.9-2.3-.5-1.3-.6-1.3-.6.1zM219 20.6c0 .8.5 1.2 1 .9.6-.3 1-1 1-1.6 0-.5-.4-.9-1-.9-.5 0-1 .7-1 1.6zM289 20c0 .5.5 1 1 1 .6 0 1-.5 1-1 0-.6-.4-1-1-1-.5 0-1 .4-1 1zM295.4 23.7c.4.7.2 1.3-.4 1.3-.6 0-.8.5-.4 1.1.4.8.9.8 1.7 0 .8-.8.7-1.4-.2-2.4-1.1-1-1.3-1-.7 0zM318.2 47.9c-1 .6-1 1 .1 2 1.2.9 1.6.8 2-.3.7-1.9-.4-2.7-2.1-1.7zM324 55.5s.9.8 1.9 1.7c1.8 1.6 2 1.5 1.8-.1 0-.9-.9-1.7-1.9-1.7-1 0-1.8.1-1.8.1zM334.5 64c-.4.6-.3 1.6.3 2.2 1.3 1.3 2.3-.4 1.3-2.1-.7-1-1-1-1.6-.1zM168.6 65.5c.4.8 1.1 1.5 1.6 1.5.6 0 .5-.6-.2-1.5-.7-.8-1.4-1.5-1.6-1.5-.2 0-.1.7.2 1.5zM342.2 73.1c.2.6.8 1 1.3 1s1.1-.4 1.3-1c.2-.6-.4-1.1-1.3-1.1s-1.5.5-1.3 1.1zM162 78c0 .5.5 1 1 1 .6 0 1-.5 1-1 0-.6-.4-1-1-1-.5 0-1 .4-1 1zM265.2 86.6c1 1 2 1.6 2.2 1.3.3-.3-.5-1.1-1.7-1.8-2.1-1.3-2.1-1.2-.5.5zM245.5 87c-1.6.7-1.7.9-.3.9.9.1 2-.4 2.3-.9.7-1.1.7-1.1-2 0zM149 91c-1.4 1.1-2 2-1.5 1.9 1.3 0 5-2.8 4.4-3.3-.2-.3-1.5.4-2.9 1.4zM364.1 94.1c-.1.9.8 2.4 1.9 3.4 1.1 1 2 1.3 2 .7 0-.6-.6-1.5-1.4-1.9-.7-.4-1.6-1.5-1.9-2.3-.5-1.3-.6-1.3-.6.1zM228.5 103c-.3.5.3 1 1.5 1s1.8-.5 1.5-1c-.3-.6-1-1-1.5-1s-1.2.4-1.5 1zM280.6 102.8c-.3.5.1.9.9.9s1.2-.4.9-.9c-.3-.4-.7-.8-.9-.8-.2 0-.6.4-.9.8zM377.5 108c.3.5.8 1 1.1 1 .2 0 .4-.5.4-1 0-.6-.5-1-1.1-1-.5 0-.7.4-.4 1zM123.5 113c-.3.6.1.7.9.4 1.8-.7 2.1-1.4.7-1.4-.6 0-1.3.4-1.6 1zM120 117.9c0 .6.4 1.3 1 1.6.6.3.7-.1.4-.9-.7-1.8-1.4-2.1-1.4-.7zM296 117.8c0 .4.9 1.3 2 2s2 .9 2 .4c0-.4-.9-1.3-2-2s-2-.9-2-.4zM206.4 124.1c-.3.6-.2 1.5.3 2s.9.1.9-1.1c0-2.3-.2-2.4-1.2-.9zM107 132.6c0 .8.5 1.2 1 .9.6-.3 1-1 1-1.6 0-.5-.4-.9-1-.9-.5 0-1 .7-1 1.6zM404 134.1c0 .8.9 2.2 2 3.2 1.1.9 2 1.4 2 1.1 0-.3-.9-1.7-2-3.1-1.2-1.5-2-2-2-1.2zM308.8 134.7c.7.3 1.6.2 1.9-.1.4-.3-.2-.6-1.3-.5-1.1 0-1.4.3-.6.6zM0 162.5V189h33l7.6-7.8c4.2-4.2 7.4-7.2 7.1-6.6-.4.6 0 1.1.8 1.1 1.2 0 1.2-.3.3-1.4-.9-1.1-.9-1.6.2-2.3 2.3-1.4 35-34.3 35-35.2 0-.4-18.9-.8-42-.8H0v26.5zM427 136.8c0 .5 1.3 2.1 3 3.7 1.6 1.5 2.7 3.3 2.3 3.8-.3.6-.2.7.4.4 1.5-.9 5.7 3.9 4.7 5.4-.5.8-.2 1.1.8.7 1.7-.7 8.3 5.6 7.4 7-.3.6.2.9 1.2.8.9 0 1.6.5 1.4 1.2-.1.8.1 1.1.6.8 1.3-.8 5.5 4 4.8 5.3-.4.6-.1.9.6.6 1.7-.7 11.3 8.9 10.4 10.4-.4.6-.2.9.6.6.7-.3 4 2.2 7.2 5.5l6 6H512v-53h-42.5c-23.4 0-42.5.4-42.5.8zM99 140c0 .5.5 1 1 1 .6 0 1-.5 1-1 0-.6-.4-1-1-1-.5 0-1 .4-1 1zM428 141.2c0 .9.7 1.9 1.6 2.2 1.5.6 1.5.4.3-1.1-.7-1-1.5-2-1.6-2.2-.2-.2-.3.3-.3 1.1zM320 141.9c0 .9 3 2.4 3.6 1.8.2-.1-.6-.8-1.6-1.5-1.1-.7-2-.8-2-.3zM91.5 148c-.3.5-.1 1 .4 1 .6 0 1.1-.5 1.1-1 0-.6-.2-1-.4-1-.3 0-.8.4-1.1 1zM67.9 156.7c-1.3 1.6-1.2 1.7.4.4.9-.7 1.7-1.5 1.7-1.7 0-.8-.8-.3-2.1 1.3zM76.5 163c-.3.5-.2 1 .4 1 .5 0 1.3-.5 1.6-1 .3-.6.2-1-.4-1-.5 0-1.3.4-1.6 1zM433 164.4c0 .2.7.6 1.5 1 .8.3 1.5.1 1.5-.4 0-.6-.7-1-1.5-1s-1.5.2-1.5.4zM338 166c0 .5.5 1 1.1 1 .5 0 .7-.5.4-1-.3-.6-.8-1-1.1-1-.2 0-.4.4-.4 1zM179.4 171.6c-1.7 1.8-2.9 3.6-2.6 3.9.3.3-.2.5-1.1.5-.9 0-1.7.5-1.7 1.1 0 .5-.5.7-1.2.3-.6-.4-.8-.3-.5.2.3.6-1.5 2.9-3.9 5.3-4.5 4.3-4.5 4.3-6.7 2.5l-2.2-1.9 1.9 2.3 2 2.2-8.4 8.2-8.3 8.2 4.8 4.2c2.7 2.3 4.5 4.6 4.1 5.3-.5.7-.1.9.8.5 1-.4 1.6-.1 1.6.9 0 .9.6 2 1.3 2.4 2.1 1.3 6.2 7.5 9.6 14 3 6 4.2 9.5 2.1 6.3-.7-1-1-1.1-1-.2 0 .7.7 1.5 1.6 1.9.8.3 1.3 1.2 1 1.9-.3.8-.2 1.4.3 1.4.9 0 2.6 8 3.6 17 .4 3 .1 8.4-.5 12-.7 3.6-1.2 7.3-1.2 8.2.1 1-.3 1.8-.8 1.8s-.6.7-.3 1.7c.4 1 .2 1.4-.5.9-.7-.4-1 .5-1 2.6.1 1.7-.4 3.4-1 3.6-.6.2-.8 1-.5 1.9.4 1 .2 1.4-.4 1-.6-.4-1.4 0-1.7.9-.3.9-.2 1.2.4.9 1-.6-1.4 4-4.8 9.3-4.7 7.4-14.2 17.1-16 16.4-.9-.3-1.3-.1-.9.5.7 1.1-.9 2.8-4.7 5-6.4 3.7-10 5.2-10.9 4.6-.6-.3-.7-.1-.4.4.4.6-1.2 1.7-3.6 2.6-5.4 2-19.7 5.7-21.7 5.5-.8-.1-25 0-53.7 0L0 340v53h56.3c43-.1 58.5-.4 66.1-1.5 5.4-.8 11.1-1.3 12.5-1.1 1.4.2 1.8.1.9-.1-1-.2-1.8-.8-1.8-1.3s.6-.7 1.3-.4c.7.2 2.7-.2 4.3-1.1 1.6-.8 3.5-1.5 4.2-1.5.7 0 2.4-.7 3.7-1.6 1.4-.9 3.2-1.4 4-1 .9.3 1.4.2 1.1-.3-.7-1.1 2.2-2.3 3.6-1.4.7.3.8.1.4-.5-.4-.7-.1-1.2.6-1.2s5.1-2.3 9.7-5c4.6-2.8 8.7-5 9-5 .3 0 1.7-1.2 3-2.5 1.3-1.4 3-2.5 3.8-2.5.8 0 1.1-.5.7-1.2-.5-.8-.2-.9 1-.5.9.4 1.5.3 1.2-.2-.3-.5 0-1.4.8-2 .8-.7 1.6-.8 1.8-.4.3.4.4.3.2-.3-.1-.5 2.3-3.5 5.3-6.5 3.1-3 6.6-7 7.9-9.1 1.3-2 2.9-4 3.5-4.4.8-.5.9-.3.4.6-.6.9-.4 1.1.4.6.7-.5 1-1.4.7-2.2-.3-.8-.1-1.4.4-1.4.6 0 1-.6 1-1.4 0-.8.5-1.8 1.2-2.2.6-.4.8-.3.5.3-.3.5 0 1 .8 1 1 0 1.2-.4.5-1.2-1.1-1.4-.3-4.5 1.1-4.5.5 0 .9-.6.9-1.3 0-.6 1-2.8 2.2-4.7 1.2-1.9 2.2-3.7 2.3-4 .6-2.9 1.8-4.9 2.7-4.4.7.5.9.1.5-.9-.3-1-.2-1.7.3-1.7.6 0 .9-.3.8-.8 0-.4.1-1.4.4-2.2.3-.8 1.1-3.3 1.7-5.6.6-2.2 2-7.6 3.2-12 1.8-6.6 2.2-11.3 2.5-28.2.2-11.1 0-20.2-.5-20.2s-.7-2.1-.5-4.8c.3-3.7.2-4.3-.6-2.7-.9 1.8-1 1.7-.7-.8.3-1.5.1-2.7-.3-2.7s-1.5-3-2.5-6.6c-1-3.6-2.6-8.4-3.7-10.5-1-2.2-1.6-4.5-1.2-5.1.4-.6.3-.8-.3-.5-1.2.7-4.6-4.9-3.8-6.3.3-.6.2-1-.4-1-1.3 0-6.2-9-5.5-10.1.3-.5 0-.8-.8-.7-.7.2-1.2-.5-1.2-1.4.1-1-.3-1.5-.9-1.1-.6.4-.8 0-.4-1.1.4-.9.3-1.5-.2-1.2-.5.3-3.3-2.3-6.2-5.9-2.9-3.6-6.3-7.2-7.7-8.1-1.3-.8-2.1-2.2-1.8-2.9.3-.9 0-1.2-1-.8-.7.3-1.4 0-1.4-.6 0-2.4-5.6-.8-8.6 2.5zM322.3 169c.1.4-2.6 3.5-6.1 7.1-3.5 3.5-9.3 10.9-13 16.4-3.6 5.5-7 10.3-7.5 10.6-.5.3-.9 1-.9 1.5-.2 2.1-2.1 6.4-2.9 6.4-.5 0-.8.3-.8.7.1.5.1 1.5-.1 2.3-.1 1.1-.4 1-1.1-.5-.8-1.6-.8-1.5-.5 1 .3 1.8-.7 6.2-2.4 11-1.5 4.4-3.4 11.4-4.1 15.5-1.4 8.5-1.8 32.5-.6 41.5.5 4.1.4 5.5-.3 4.5-.5-.8-1-1.1-1-.6 0 .5.6 1.7 1.4 2.5.8.9 2 4.5 2.7 8.1.7 3.6 1.6 6.7 1.9 7 1.5 1.4 4 11.3 3.4 13.3-.7 2.1-.7 2.1-1.5.2-.6-1.5-.8-1.6-.8-.4-.1.9.6 2.2 1.5 2.9.8.8 1.4.9 1.3.4-.3-1.9.1-3.4 1.1-3.4.5 0 .7.6.4 1.4-.3.7.6 2.6 2.1 4.1 1.4 1.6 2.3 3.5 2 4.4-.2.9 0 2.3.6 3.1.8 1.2.9 1 .4-.8-.8-2.7.1-2.9 1.5-.3.7 1.5.6 2.3-.4 3.4-.9.9-1.1 1.9-.6 2.8.8 1.2 1.1 1.2 2.2 0 1-1 1-1.2.1-.7-1.3.7-1.8-.6-.6-1.7 1.2-1.3 5.2 5.5 4.9 8.4-.2 1.6.1 2.6.6 2.3.5-.3.7-1.3.4-2.3-.6-1.5.9 0 7.2 7.8 1.5 1.9 3.3 4 4 4.7 1.7 1.8 1.5 2.4-.5 1.7-1.1-.4-1.5-.2-1 .3s1.9.9 3 .9c1.4 0 2.1.5 1.9 1.5-.2.8 0 1.2.4.8.9-.9 9.7 6.8 10 8.8.1.9.6 1.9 1 2.2.4.4.4-.1.1-1.1-.4-.9-.3-1.7.2-1.7 1.4 0 5.2 4.7 4.9 6.1-.2.8.7 1.4 2.4 1.4 1.5.1 2.4-.3 2.1-.8-.3-.6 1.4.2 3.8 1.7s6.1 3.4 8.1 4.3c2.1.8 3.5 1.9 3.2 2.4-.3.5.3 1 1.3 1 3 .2 3.6.4 10.3 2.7 3.6 1.2 7 2.2 7.5 2.3.6 0 1.5.4 2 .9.6.5 5.1 1.6 10 2.4 7.5 1.3 18.7 1.6 66.8 1.6H512v-53h-51.7c-28.5 0-54.5-.4-57.8-.9-3.3-.6-7.4-1.2-9.1-1.4-1.7-.3-4.2-1.1-5.5-1.8-2.3-1.3-2.9-1.5-5.7-1.8-.6 0-1.1-.4-1.1-.9.3-1.8-.2-2.6-1-1.3-.7 1.1-1.8.8-5.5-1.4-2.5-1.5-4.6-3-4.6-3.4 0-.3-1.4-1.2-3.1-2-4.1-1.8-15.7-13.2-15.2-14.9.3-.7-.1-1.1-.7-1-.7.2-1.5-.3-1.8-1.1-.3-.9 0-1.1.8-.6.9.5 1.1.4.6-.4-.4-.6-1.1-.9-1.6-.6-1.1.7-6.1-6.5-5.4-7.7.4-.5-.4-2-1.6-3.3-1.2-1.3-1.9-2.8-1.5-3.4.3-.6.1-1.1-.4-1.1-.6 0-1-.3-.9-.8.1-.4-.4-2-1.1-3.7-.7-1.6-1-3.7-.8-4.7.3-1 .2-1.6-.3-1.3-2.5 1.6-2.8-22.9-.3-33.3 1.3-5.5 1.9-6.9 2.5-5.5.6 1.2.7.7.3-1.5-.3-2-.1-3.1.5-2.7.6.3.7-.1.4-.9-.3-.9-.1-1.6.5-1.6s1.1-.8 1.1-1.8c0-2.7 7-13.3 8.2-12.6.7.4.8.2.4-.4-.6-1.1 3.1-5.8 9.2-11.5 3.7-3.5 4-5.1 1.3-7.4-1.1-.9-1.7-2.1-1.4-2.7.3-.6.2-.8-.2-.3-1 .9-14.6-12.3-13.9-13.5.3-.5 0-.7-.7-.6-.9.2-1.4-.9-1.4-3-.1-3.2-2-5.6-3.7-4.6-1.3.8.2 2.5 1.5 1.8.7-.4.9-.4.5.1-.4.4-.3 1.4.3 2.2 1.9 2.2.1 1.5-2.3-1-1.3-1.2-2.2-2.6-2-3 .1-.5-.1-.6-.6-.3-.4.2-2.8-1.5-5.2-4-3.3-3.3-5-4.4-7.1-4.2-1.5.1-2.7.5-2.6.8zm17.2 204c-.3.5-1.1 1-1.6 1-.6 0-.7-.5-.4-1 .3-.6 1.1-1 1.6-1 .6 0 .7.4.4 1z"/><path d="M331.6 168.9c-.3.4.3 1.6 1.3 2.5 2.4 2.1 3.8.4 1.5-1.8-1.8-1.8-2.1-1.9-2.8-.7zm2.5 1.8c1.3 1.6 1.2 1.7-.3.4-1.7-1.3-2.2-2.1-1.4-2.1.2 0 1 .8 1.7 1.7zM438 168.9c0 .6.4 1.2.8 1.5.5.3.9-.1.9-.9s-.4-1.5-.9-1.5c-.4 0-.8.4-.8.9zM176.4 170.1c-.3.6-.2 1.5.3 2s.9.1.9-1.1c0-2.3-.2-2.4-1.2-.9zM318.2 170.5c-.7.8-.9 1.5-.4 1.5s1.5-.7 2.2-1.5c1.6-1.9-.1-1.9-1.8 0zM348.7 171.1c.7.7 1.5 1 1.8.7.3-.3-.2-.9-1.2-1.2-1.4-.6-1.5-.5-.6.5zM67.7 171.7c-.4.3-.7 1.1-.7 1.7 0 .6.5.5 1.2-.2.6-.6.9-1.4.7-1.7-.3-.3-.9-.2-1.2.2zM458.5 172c.3.5.8 1 1.1 1 .2 0 .4-.5.4-1 0-.6-.5-1-1.1-1-.5 0-.7.4-.4 1zM443 173.5c.7.9 1.5 1.3 1.7 1.1.7-.7-.7-2.6-1.9-2.6-.6 0-.6.6.2 1.5zM353.6 175.2c1 1.4 2.1 2.4 2.3 2.2.3-.3-.6-1.5-1.8-2.7l-2.4-2.2 1.9 2.7zM312.6 176.7c-.6 1.4-.5 1.5.5.6.7-.7 1-1.5.7-1.8-.3-.3-.9.2-1.2 1.2zM446 177.5c.7.8 1.7 1.5 2.2 1.5.6 0 .5-.7-.2-1.5s-1.7-1.5-2.2-1.5c-.6 0-.5.7.2 1.5zM61 179c-1.4 1.1-2 2-1.5 1.9 1.3 0 5-2.8 4.4-3.3-.2-.3-1.5.4-2.9 1.4zM467.2 180.4c.7.8 1.5 1.2 1.7 1.1.5-.6-1-2.5-2-2.5-.5 0-.4.6.3 1.4zM464.7 182.3c-.3.7.3 1.3 1.4 1.3 1.3 0 1.5-.3.7-1.3-.6-.7-1.2-1.3-1.3-1.3-.2 0-.5.6-.8 1.3zM39.5 183.1c-.4.6-.5 1.2-.2 1.5.2.3.7-.2 1-1.1.7-1.7.1-2-.8-.4zM149 182.4c0 .2.7.7 1.6 1 .8.3 1.2.2.9-.4-.6-1-2.5-1.4-2.5-.6zM360.5 183c-.3.5.1 1 1 1s1.3-.5 1-1c-.3-.6-.8-1-1-1-.2 0-.7.4-1 1zM304.1 183.7c-.1 1.7 1.6 2.5 2.5 1.2.4-.7.3-.9-.4-.5-.5.3-1.3 0-1.5-.6-.4-.9-.6-1-.6-.1zM351.5 184.1c-.4.6-1.4.8-2.4.4-1.3-.5-1.4-.4-.3.6 1 1.1 1.5 1 2.9-.4 1-.9 1.4-1.7 1.1-1.7-.4 0-1 .5-1.3 1.1zM54.5 186c-.3.5-.1 1 .4 1 .6 0 1.1-.5 1.1-1 0-.6-.2-1-.4-1-.3 0-.8.4-1.1 1zM347 186.4c0 .2.7.9 1.5 1.6.9.7 1.5.8 1.5.2 0-.5-.7-1.2-1.5-1.6-.8-.3-1.5-.4-1.5-.2zM51.5 188c-.3.5-.1 1 .4 1 .6 0 1.1-.5 1.1-1 0-.6-.2-1-.4-1-.3 0-.8.4-1.1 1zM459.5 189c.3.5.8 1 1.1 1 .2 0 .4-.5.4-1 0-.6-.5-1-1.1-1-.5 0-.7.4-.4 1zM296.9 193.7c.6 1.2.8 3 .5 4-.4 1 .5.3 2-1.6 3.1-4.1 3-3.8 1.2-3.8-.8 0-1.2.6-.9 1.4.7 1.9-.7 1.6-2.4-.5-1.3-1.5-1.3-1.5-.4.5zM462 192.9c0 .6.4 1.3 1 1.6.6.3.7-.1.4-.9-.7-1.8-1.4-2.1-1.4-.7zM465 196c0 .5.5 1 1 1 .6 0 1-.5 1-1 0-.6-.4-1-1-1-.5 0-1 .4-1 1zM364 202.8c0 1.2 1.9 2.6 2.6 1.9.2-.2-.2-1-1.1-1.7-.9-.8-1.5-.8-1.5-.2zM292.2 206.5c0 1.6.2 2.2.5 1.2.2-.9.2-2.3 0-3-.3-.6-.5.1-.5 1.8zM384.1 204.6c.1 2.1 1.6 4.7 2.1 3.8.4-.5 0-1.8-.8-2.9-.8-1-1.4-1.5-1.3-.9zM476 207c0 .5.5 1 1 1 .6 0 1-.5 1-1 0-.6-.4-1-1-1-.5 0-1 .4-1 1zM221.7 211.3c-.3.8.1 1.4.8 1.4.7 0 1.1-.6.8-1.4-.3-.7-.6-1.3-.8-1.3-.2 0-.5.6-.8 1.3zM486 216c-.9.6-1 1-.3 1 .6 0 1.5-.5 1.8-1 .8-1.2.4-1.2-1.5 0zM21 219c-1.4 1.1-2 2-1.4 2 .6 0 1.9-.9 2.9-2 2.3-2.5 1.7-2.5-1.5 0zM163.4 227.5c.1 1.8.6 3.8 1 4.2.5.5.6.2.1-.6-.4-.8-.2-1.6.5-2.1 1-.6 1-1.2-.2-2.9-1.4-2-1.5-1.9-1.4 1.4zM346.7 226.9c-.4 1.7-.3 2.1.5 1.3.5-.5.8-1.6.6-2.3-.3-.8-.7-.3-1.1 1zM2 238.5c-.7.9-1.1 1.7-.9 2 .3.2 1-.5 1.7-1.5 1.4-2.4 1-2.6-.8-.5zM230.1 240.6c0 1.1.3 1.4.6.6.3-.7.2-1.6-.1-1.9-.3-.4-.6.2-.5 1.3zM281.1 241.6c0 1.1.3 1.4.6.6.3-.7.2-1.6-.1-1.9-.3-.4-.6.2-.5 1.3zM341.5 241c.3.5.8 1 1.1 1 .2 0 .4-.5.4-1 0-.6-.5-1-1.1-1-.5 0-.7.4-.4 1zM170 245c0 .5.5 1 1 1 .6 0 1-.5 1-1 0-.6-.4-1-1-1-.5 0-1 .4-1 1zM171.6 279.6c-.4.9-.4 1.9-.1 2.2.2.3.7-.3 1.1-1.2.4-.9.4-1.9.1-2.2-.2-.3-.7.3-1.1 1.2zM341 289.1c0 .5.5.7 1.1.3.8-.4.9.1.5 1.7-.6 2-.5 2.1.4.6 1.1-1.8.6-3.7-1.1-3.7-.5 0-.9.5-.9 1.1zM387.1 289.6c0 1.1.3 1.4.6.6.3-.7.2-1.6-.1-1.9-.3-.4-.6.2-.5 1.3zM228.1 292.6c0 1.1.3 1.4.6.6.3-.7.2-1.6-.1-1.9-.3-.4-.6.2-.5 1.3zM229.1 301.6c0 1.1.3 1.4.6.6.3-.7.2-1.6-.1-1.9-.3-.4-.6.2-.5 1.3zM357 315.5c2.2 2.4 3 2.9 3 2.2 0-.8-3.8-4.7-4.5-4.7-.5 0 .2 1.1 1.5 2.5zM152 316.1c0 .5.5.7 1 .4.6-.3 1-.8 1-1.1 0-.2-.4-.4-1-.4-.5 0-1 .5-1 1.1zM397.8 326.7c.7.3 1.6.2 1.9-.1.4-.3-.2-.6-1.3-.5-1.1 0-1.4.3-.6.6zM214 328.1c0 .5.5.7 1 .4.6-.3 1-.8 1-1.1 0-.2-.4-.4-1-.4-.5 0-1 .5-1 1.1zM126 329.4c0 .2.7.6 1.5 1 .8.3 1.5.1 1.5-.4 0-.6-.7-1-1.5-1s-1.5.2-1.5.4zM401.8 337.7c.6.2 1.8.2 2.5 0 .6-.3.1-.5-1.3-.5-1.4 0-1.9.2-1.2.5zM172.9 373.1l-2.4 2 2.8-1.7c1.5-.9 2.7-1.8 2.7-2 0-.8-.8-.4-3.1 1.7zM163.2 378.5c-.7.8-.9 1.5-.4 1.5s1.5-.7 2.2-1.5c1.6-1.9-.1-1.9-1.8 0zM344 380c0 .9 3.9 2.5 4.5 1.8.2-.2-.7-.8-2.1-1.5-1.3-.6-2.4-.7-2.4-.3zM165 381c0 .5.5 1 1.1 1 .5 0 .7-.5.4-1-.3-.6-.8-1-1.1-1-.2 0-.4.4-.4 1zM352 381c.8.5 2 1 2.5 1 .6 0 .3-.5-.5-1s-1.9-1-2.5-1c-.5 0-.3.5.5 1zM371.5 389c.3.6.1 1-.6 1s-1 .3-.6.6c.3.3 1.3.2 2.2-.4 1.6-.8 1.6-.9.1-1.5-1-.4-1.5-.3-1.1.3zM139.8 389.7c.7.3 1.6.2 1.9-.1.4-.3-.2-.6-1.3-.5-1.1 0-1.4.3-.6.6zM366.8 389.7c.7.3 1.6.2 1.9-.1.4-.3-.2-.6-1.3-.5-1.1 0-1.4.3-.6.6zM66.5 449.5c0 22.7.3 41.1.6 40.9.4-.2.9 1.5 1.2 3.8.3 2.2 1.5 5.4 2.7 7.1 1.2 1.6 2.3 3.6 2.4 4.5.2 1 1.1 1.9 2.1 2.1 1 .1 3.3 1.2 5.2 2.2 3.3 1.8 8.3 1.9 175.8 1.9 114.3 0 172.5-.3 172.5-1 0-.6.7-1 1.6-1 .8 0 1.3.4 1 .8-.3.5.1.9.9.9s1.2-.4.9-.9c-.3-.4 0-.8.5-.8.6 0 1.1-.6 1.1-1.3 0-.8 1-2.2 2.2-3.3 1.4-1.2 1.8-1.4 1.3-.4-.5.9-.5 1.2.1.7.5-.5.9-1.2 1-1.5.1-1.1 3.2-7.7 3.9-8.3.3-.4.6-19.9.6-43.4 0-33.9-.3-43-1.3-43.7-1.7-1.1-54.8-.9-54.8.2 0 .5.5 1.2 1.1 1.6.8.5.8.9-.1 1.4-.9.6-.9 1.3-.1 2.9.8 1.3 1.1 7.5.9 17.8-.3 14.2-.5 15.8-2 15.7-1.4-.1-1.6.2-.7 1.8.8 1.6.7 1.9-.7 1.6-.9-.2-1.9.4-2.1 1.2-.4 1.3-.3 1.3.6 0 .7-1 1.1-1.1 1.1-.3 0 .7-1.2 2.1-2.7 3-2.6 1.7-10 1.8-126.9 2.1-119.4.2-124.4.2-127.6-1.6-1.8-1-3.3-2.5-3.4-3.3-.2-3-.5-3.3-1.4-1.9-1.2 1.9-1.2 1.8-1.4-22.5-.1-11.4-.5-19.3-1.1-19.8-.5-.4-13.1-.7-28-.6l-27 .2v41.2zM67 498c.6 1.1 1.3 2 1.6 2 .2 0 0-.9-.6-2s-1.3-2-1.6-2c-.2 0 0 .9.6 2zM72.6 510.9c-.4.5.3.7 1.4.4 2.3-.6 2.6-1.3.6-1.3-.8 0-1.7.4-2 .9z"/></svg>